<svg xmlns="http://www.w3.org/2000/svg" width="100" height="100" viewBox="0 0 100 100"><rect width="100%" height="100%" fill="#000000"/><path fill="#ffffff" d="M25.37 60.5h-4.14V39.2h4.14zm2.85-7.86q0-1.65.57-3.12t1.65-2.58 2.61-1.77 3.45-.66q2.58 0 4.39 1.11 1.82 1.11 2.72 2.91l-3.93 1.2q-.51-.87-1.35-1.34-.84-.46-1.86-.46-.87 0-1.62.35-.75.34-1.31.96-.55.61-.86 1.48-.32.87-.32 1.92t.33 1.92.88 1.5q.56.63 1.31.98.75.34 1.59.34 1.08 0 1.99-.54.92-.54 1.28-1.32l3.93 1.2q-.81 1.8-2.67 2.94t-4.47 1.14q-1.92 0-3.45-.66t-2.61-1.79q-1.08-1.12-1.67-2.6-.58-1.49-.58-3.11m25.02 8.16q-1.92 0-3.45-.66t-2.6-1.79q-1.06-1.12-1.63-2.59t-.57-3.09q0-1.65.57-3.12t1.63-2.59q1.07-1.13 2.6-1.79t3.45-.66 3.43.66q1.52.66 2.58 1.79 1.07 1.12 1.64 2.59t.57 3.12q0 1.62-.57 3.09t-1.62 2.59q-1.05 1.13-2.58 1.79t-3.45.66m-4.11-8.13q0 1.05.31 1.91.32.85.87 1.48.56.63 1.31.98.75.34 1.62.34t1.62-.34q.75-.35 1.3-.98.56-.63.87-1.5.32-.87.32-1.92 0-1.02-.32-1.89-.31-.87-.87-1.5-.55-.63-1.3-.97-.75-.35-1.62-.35t-1.62.36-1.31.99q-.55.63-.87 1.5-.31.87-.31 1.89m29.64-1.98v9.81h-4.02v-8.82q0-1.89-.66-2.76t-1.83-.87q-.6 0-1.23.24t-1.19.67q-.55.44-1 1.04t-.66 1.32v9.18h-4.02V44.78h3.63v2.91q.87-1.5 2.52-2.34t3.72-.84q1.47 0 2.4.54t1.44 1.41.7 1.98q.2 1.11.2 2.25"/></svg>